<svg width="24" height="24" viewBox="0 0 24 24" fill="none" xmlns="http://www.w3.org/2000/svg">
<path d="M19.2 3H4.8C3.80589 3 3 3.7835 3 4.75V8.25C3 9.2165 3.80589 10 4.8 10H19.2C20.1941 10 21 9.2165 21 8.25V4.75C21 3.7835 20.1941 3 19.2 3Z" stroke="#1C1C1E" stroke-width="2" stroke-linecap="round" stroke-linejoin="round"/>
<path d="M19.2 14H4.8C3.80589 14 3 14.7835 3 15.75V19.25C3 20.2165 3.80589 21 4.8 21H19.2C20.1941 21 21 20.2165 21 19.25V15.75C21 14.7835 20.1941 14 19.2 14Z" stroke="#1C1C1E" stroke-width="2" stroke-linecap="round" stroke-linejoin="round"/>
<path d="M6.50488 6.5H6.51488" stroke="#1C1C1E" stroke-width="2" stroke-linecap="round" stroke-linejoin="round"/>
<path d="M6.49487 17.5H6.50487" stroke="#1C1C1E" stroke-width="2" stroke-linecap="round" stroke-linejoin="round"/>
</svg>
