<svg width="24" height="24" viewBox="0 0 24 24" fill="none" xmlns="http://www.w3.org/2000/svg">
<path d="M17.3333 8.6C17.3333 7.11479 16.7714 5.69041 15.7712 4.6402C14.771 3.59 13.4145 3 12 3C10.5855 3 9.22896 3.59 8.22876 4.6402C7.22857 5.69041 6.66667 7.11479 6.66667 8.6C6.66667 15.1333 4 17 4 17H20C20 17 17.3333 15.1333 17.3333 8.6Z" stroke="#1C1C1E" stroke-width="2" stroke-linecap="round" stroke-linejoin="round"/>
<path d="M13.75 20C13.5722 20.3031 13.3169 20.5547 13.0098 20.7295C12.7026 20.9044 12.3544 20.9965 12 20.9965C11.6456 20.9965 11.2974 20.9044 10.9902 20.7295C10.6831 20.5547 10.4278 20.3031 10.25 20" stroke="#1C1C1E" stroke-width="2" stroke-linecap="round" stroke-linejoin="round"/>
</svg>
