<svg width="24" height="24" viewBox="0 0 24 24" fill="none" xmlns="http://www.w3.org/2000/svg">
<path d="M10 21C10.5523 21 11 20.5523 11 20C11 19.4477 10.5523 19 10 19C9.44772 19 9 19.4477 9 20C9 20.5523 9.44772 21 10 21Z" stroke="#1C1C1E" stroke-width="2" stroke-linecap="round" stroke-linejoin="round"/>
<path d="M18 21C18.5523 21 19 20.5523 19 20C19 19.4477 18.5523 19 18 19C17.4477 19 17 19.4477 17 20C17 20.5523 17.4477 21 18 21Z" stroke="#1C1C1E" stroke-width="2" stroke-linecap="round" stroke-linejoin="round"/>
<path d="M3 3H6.27273L8.46545 14.6044C8.54027 15.0034 8.7452 15.3618 9.04436 15.6169C9.34351 15.872 9.71784 16.0075 10.1018 15.9997H18.0545C18.4385 16.0075 18.8129 15.872 19.112 15.6169C19.4112 15.3618 19.6161 15.0034 19.6909 14.6044L21 7.33323H7.09091" stroke="#1C1C1E" stroke-width="2" stroke-linecap="round" stroke-linejoin="round"/>
</svg>
