<svg width="24" height="24" viewBox="0 0 24 24" fill="none" xmlns="http://www.w3.org/2000/svg">
<path fill-rule="evenodd" clip-rule="evenodd" d="M11.3861 2.21065C11.7472 1.92978 12.2529 1.92978 12.614 2.21065L21.614 9.21065C22.0499 9.54972 22.1285 10.178 21.7894 10.6139C21.4503 11.0499 20.8221 11.1284 20.3861 10.7894L20 10.4891V19.2222C20 19.919 19.7591 20.6098 19.297 21.1379C18.8312 21.6701 18.1686 22 17.4445 22H6.5556C5.83147 22 5.16887 21.6701 4.7031 21.1379C4.24102 20.6098 4.00005 19.919 4.00005 19.2222V10.4891L3.61399 10.7894C3.17804 11.1284 2.54976 11.0499 2.21069 10.6139C1.87162 10.178 1.95016 9.54972 2.38611 9.21065L11.3861 2.21065Z" fill="#1C1C1E"/>
</svg>
