<svg width="24" height="24" viewBox="0 0 24 24" fill="none" xmlns="http://www.w3.org/2000/svg">
<path d="M15.5 9C17.0913 9 18.6174 9.58351 19.7426 10.6222C20.8679 11.6608 21.5 13.0696 21.5 14.5385V21H17.5V14.5385C17.5 14.0488 17.2893 13.5793 16.9142 13.233C16.5391 12.8868 16.0304 12.6923 15.5 12.6923C14.9696 12.6923 14.4609 12.8868 14.0858 13.233C13.7107 13.5793 13.5 14.0488 13.5 14.5385V21H9.5V14.5385C9.5 13.0696 10.1321 11.6608 11.2574 10.6222C12.3826 9.58351 13.9087 9 15.5 9Z" stroke="#1C1C1E" stroke-width="2" stroke-linecap="round" stroke-linejoin="round"/>
<path d="M6.5 10H2.5V21H6.5V10Z" stroke="#1C1C1E" stroke-width="2" stroke-linecap="round" stroke-linejoin="round"/>
<path d="M4.5 7C5.60457 7 6.5 6.10457 6.5 5C6.5 3.89543 5.60457 3 4.5 3C3.39543 3 2.5 3.89543 2.5 5C2.5 6.10457 3.39543 7 4.5 7Z" stroke="#1C1C1E" stroke-width="2" stroke-linecap="round" stroke-linejoin="round"/>
</svg>
