<svg width="24" height="24" viewBox="0 0 24 24" fill="none" xmlns="http://www.w3.org/2000/svg">
<path d="M18.2222 10.5H5.77778C4.79594 10.5 4 11.314 4 12.3182V18.6818C4 19.686 4.79594 20.5 5.77778 20.5H18.2222C19.2041 20.5 20 19.686 20 18.6818V12.3182C20 11.314 19.2041 10.5 18.2222 10.5Z" stroke="#1C1C1E" stroke-width="2" stroke-linecap="round" stroke-linejoin="round"/>
<path d="M7.5 10.5V7.38889C7.5 6.35749 7.97411 5.36834 8.81802 4.63903C9.66193 3.90972 10.8065 3.5 12 3.5C13.1935 3.5 14.3381 3.90972 15.182 4.63903C16.0259 5.36834 16.5 6.35749 16.5 7.38889V10.5" stroke="#1C1C1E" stroke-width="2" stroke-linecap="round" stroke-linejoin="round"/>
</svg>
