<svg width="24" height="24" viewBox="0 0 24 24" fill="none" xmlns="http://www.w3.org/2000/svg">
<path d="M19 10.3636C19 16.0909 12 21 12 21C12 21 5 16.0909 5 10.3636C5 8.41068 5.7375 6.53771 7.05025 5.15676C8.36301 3.77581 10.1435 3 12 3C13.8565 3 15.637 3.77581 16.9497 5.15676C18.2625 6.53771 19 8.41068 19 10.3636Z" stroke="#1C1C1E" stroke-width="2" stroke-linecap="round" stroke-linejoin="round"/>
<path d="M12 12.4256C13.3807 12.4256 14.5 11.3063 14.5 9.92559C14.5 8.54487 13.3807 7.42559 12 7.42559C10.6193 7.42559 9.5 8.54487 9.5 9.92559C9.5 11.3063 10.6193 12.4256 12 12.4256Z" stroke="#1C1C1E" stroke-width="2" stroke-linecap="round" stroke-linejoin="round"/>
</svg>
