<svg width="24" height="24" viewBox="0 0 24 24" fill="none" xmlns="http://www.w3.org/2000/svg">
<path d="M13.75 3H6.75C6.28587 3 5.84075 3.18964 5.51256 3.52721C5.18437 3.86477 5 4.32261 5 4.8V19.2C5 19.6774 5.18437 20.1352 5.51256 20.4728C5.84075 20.8104 6.28587 21 6.75 21H17.25C17.7141 21 18.1592 20.8104 18.4874 20.4728C18.8156 20.1352 19 19.6774 19 19.2V8.4L13.75 3Z" stroke="#1C1C1E" stroke-width="2" stroke-linecap="round" stroke-linejoin="round"/>
<path d="M14 4V8H18" stroke="#1C1C1E" stroke-width="2" stroke-linecap="round" stroke-linejoin="round"/>
<path d="M15 13L9 13" stroke="#1C1C1E" stroke-width="2" stroke-linecap="round" stroke-linejoin="round"/>
<path d="M15 17H9" stroke="#1C1C1E" stroke-width="2" stroke-linecap="round" stroke-linejoin="round"/>
<path d="M10 9H9.5H9" stroke="#1C1C1E" stroke-width="2" stroke-linecap="round" stroke-linejoin="round"/>
</svg>
