<svg width="24" height="24" viewBox="0 0 24 24" fill="none" xmlns="http://www.w3.org/2000/svg">
<path fill-rule="evenodd" clip-rule="evenodd" d="M2 11C2 6.02944 6.02944 2 11 2C15.9706 2 20 6.02944 20 11C20 12.9438 19.3838 14.7437 18.336 16.215L21.5612 19.4437C22.1467 20.0298 22.1462 20.9796 21.5601 21.565C20.974 22.1505 20.0242 22.15 19.4388 21.5639L16.2146 18.3362C14.7434 19.3839 12.9437 20 11 20C6.02944 20 2 15.9706 2 11ZM11 17C14.3137 17 17 14.3137 17 11C17 7.68629 14.3137 5 11 5C7.68629 5 5 7.68629 5 11C5 14.3137 7.68629 17 11 17Z" fill="#1C1C1E"/>
</svg>
