<svg width="24" height="24" viewBox="0 0 24 24" fill="none" xmlns="http://www.w3.org/2000/svg">
<path d="M21 4.00897C20.2165 4.61128 19.349 5.07195 18.4309 5.37324C17.9382 4.75576 17.2833 4.3181 16.5548 4.11947C15.8264 3.92083 15.0596 3.9708 14.3581 4.26261C13.6565 4.55442 13.0542 5.07399 12.6324 5.75105C12.2107 6.42812 11.9899 7.23001 12 8.04827V8.93995C10.5622 8.98058 9.13741 8.63305 7.85264 7.92829C6.56788 7.22354 5.46299 6.18345 4.63636 4.90065C4.63636 4.90065 1.36364 12.9258 8.72727 16.4925C7.04225 17.739 5.03495 18.364 3 18.2758C10.3636 22.7342 19.3636 18.2758 19.3636 8.02152C19.3629 7.77315 19.341 7.52539 19.2982 7.28143C20.1332 6.38395 20.7225 5.25082 21 4.00897V4.00897Z" stroke="#1C1C1E" stroke-width="2" stroke-linecap="round" stroke-linejoin="round"/>
</svg>
