<svg width="24" height="24" viewBox="0 0 24 24" fill="none" xmlns="http://www.w3.org/2000/svg">
<path d="M15 19.5V17.8333C15 16.9493 14.6839 16.1014 14.1213 15.4763C13.5587 14.8512 12.7956 14.5 12 14.5H6C5.20435 14.5 4.44129 14.8512 3.87868 15.4763C3.31607 16.1014 3 16.9493 3 17.8333V19.5" stroke="#1C1C1E" stroke-width="2" stroke-linecap="round" stroke-linejoin="round"/>
<path d="M9 10.5C10.6569 10.5 12 9.15685 12 7.5C12 5.84315 10.6569 4.5 9 4.5C7.34315 4.5 6 5.84315 6 7.5C6 9.15685 7.34315 10.5 9 10.5Z" stroke="#1C1C1E" stroke-width="2" stroke-linecap="round" stroke-linejoin="round"/>
<path d="M21 19.5V17.7964C20.9993 17.0415 20.7044 16.3082 20.1614 15.7115C19.6184 15.1149 18.8581 14.6887 18 14.5" stroke="#1C1C1E" stroke-width="2" stroke-linecap="round" stroke-linejoin="round"/>
<path d="M17 4.5C17.5721 4.67056 18.0792 5.05796 18.4413 5.60114C18.8034 6.14432 19 6.81238 19 7.5C19 8.18762 18.8034 8.85567 18.4413 9.39886C18.0792 9.94204 17.5721 10.3294 17 10.5" stroke="#1C1C1E" stroke-width="2" stroke-linecap="round" stroke-linejoin="round"/>
</svg>
